<svg width="20" height="21" viewBox="0 0 20 21" fill="none" xmlns="http://www.w3.org/2000/svg">
<path d="M0.514264 12.0153C2.11438 11.5732 4.49351 10.8363 6.80947 10.0783L7.02001 11.51C4.91459 12.2258 2.66179 12.9838 0.935348 13.5523L0.514264 12.0153ZM0.809023 5.06742H7.02001V6.54121H0.809023V5.06742ZM3.37764 0.835526H4.91459V18.1842C4.91459 19.0685 4.7251 19.5317 4.19875 19.7843C3.67239 20.037 2.87233 20.1001 1.56697 20.1001C1.48276 19.7001 1.29327 19.0053 1.08273 18.5421C1.98806 18.5842 2.78812 18.5842 3.01971 18.5632C3.29342 18.5632 3.37764 18.4789 3.37764 18.1842V0.835526ZM8.2201 5.27796H19.463V6.79386H8.2201V5.27796ZM7.52531 11.0258H19.9683V12.5417H7.52531V11.0258ZM15.3364 5.7201H16.8944V20.1001H15.3364V5.7201ZM9.4623 1.55137L10.8098 0.982906C11.5888 2.09878 12.4309 3.61468 12.7678 4.56212L11.3361 5.2148C11.0203 4.26736 10.2203 2.6883 9.4623 1.55137ZM16.9786 0.85658L18.6209 1.42504C17.8629 2.98305 16.9576 4.85688 16.1996 6.03591L14.9364 5.50956C15.6522 4.26736 16.5155 2.26721 16.9786 0.85658ZM10.7466 5.7201H12.3046V10.8152C12.3046 13.826 11.8204 17.742 8.07272 20.2896C7.86218 19.9527 7.35688 19.4053 6.99896 19.1527C10.5361 16.9841 10.7466 13.3838 10.7466 10.7942V5.7201Z" fill="currentColor"/>
</svg>
