<svg width="25" height="23" viewBox="0 0 25 23" fill="none" xmlns="http://www.w3.org/2000/svg">
<path d="M23.7271 3.17993H23.0304V17.8109C23.0304 18.9635 22.0464 19.9011 20.8938 19.9011H14.5043C14.2165 20.7121 13.4416 21.2945 12.5332 21.2945C11.6249 21.2945 10.85 20.7121 10.5621 19.9011H4.17267C3.02012 19.9011 2.03608 18.9635 2.03608 17.8109V3.17993H1.33937C0.954271 3.17993 0.642654 3.49155 0.642654 3.87665V20.5978C0.642654 20.9829 0.954271 21.2945 1.33937 21.2945H9.16871C9.4565 22.1055 10.2315 22.6879 11.1398 22.6879H13.9267C14.835 22.6879 15.6099 22.1055 15.8978 21.2945H23.7271C24.1122 21.2945 24.4238 20.9829 24.4238 20.5978V3.87665C24.4238 3.49155 24.1122 3.17993 23.7271 3.17993Z" fill="currentColor"/>
<path d="M11.8365 17.9972V2.01613C10.8721 1.21022 9.32364 0.393066 6.95946 0.393066C6.57436 0.393066 6.26274 0.704683 6.26274 1.08978V15.0241C6.26274 15.4092 6.57436 15.7208 6.95946 15.7208C10.1822 15.7208 11.5261 17.5033 11.8365 17.9972Z" fill="currentColor"/>
<path d="M20.8937 18.5075C21.2788 18.5075 21.5904 18.1959 21.5904 17.8108V2.48309C21.5904 2.09799 21.2788 1.78638 20.8937 1.78638H15.32C14.5328 1.78638 13.8139 2.05879 13.2299 2.50088V19.2042C13.2299 18.8198 13.5422 18.5075 13.9266 18.5075H20.8937Z" fill="currentColor"/>
<path d="M4.17259 1.78638C3.78749 1.78638 3.47588 2.09799 3.47588 2.48309V17.8108C3.47588 18.1959 3.78749 18.5075 4.17259 18.5075H10.4824C10.0922 18.0345 9.06891 17.1141 6.95945 17.1141C5.8069 17.1141 4.8693 16.1765 4.8693 15.0239V1.78638H4.17259Z" fill="currentColor"/>
</svg>
