<svg width="19" height="16" viewBox="0 0 19 16" fill="none" xmlns="http://www.w3.org/2000/svg">
<path d="M16.1088 1.73136C18.2546 4.90864 19.3143 8.49253 18.9182 12.6184C18.9165 12.6359 18.9075 12.6519 18.8933 12.6624C17.2683 13.8641 15.6939 14.5933 14.1416 15.077C14.1295 15.0806 14.1166 15.0804 14.1046 15.0764C14.0927 15.0723 14.0822 15.0646 14.0749 15.0542C13.7162 14.5517 13.3904 14.0219 13.1049 13.4656C13.0885 13.4328 13.1035 13.3934 13.1372 13.3804C13.6547 13.1841 14.1468 12.9487 14.6202 12.6701C14.6575 12.6481 14.6598 12.5942 14.6254 12.5684C14.5249 12.4933 14.4254 12.4144 14.3302 12.3355C14.3124 12.3209 14.2884 12.318 14.2682 12.3278C11.1952 13.7569 7.82887 13.7569 4.71952 12.3278C4.69933 12.3187 4.67535 12.3218 4.65801 12.3362C4.56301 12.4151 4.46326 12.4933 4.36375 12.5684C4.32931 12.5942 4.33216 12.6481 4.36968 12.6701C4.84302 12.9435 5.33512 13.1841 5.85192 13.3814C5.88541 13.3943 5.90132 13.4328 5.88469 13.4656C5.60539 14.0226 5.27955 14.5524 4.91427 15.0549C4.89836 15.0753 4.87223 15.0846 4.84753 15.077C3.3026 14.5933 1.72821 13.8641 0.103242 12.6624C0.0897043 12.6519 0.0799668 12.6351 0.0785418 12.6177C-0.252533 9.04887 0.422204 5.43532 2.88531 1.73064C2.89125 1.72083 2.90027 1.71318 2.91072 1.70863C4.12268 1.14847 5.4211 0.736363 6.77817 0.501008C6.80287 0.497181 6.82757 0.508662 6.84039 0.530667C7.00807 0.829643 7.19973 1.21305 7.3294 1.52638C8.75986 1.30633 10.2126 1.30633 11.673 1.52638C11.8027 1.21975 11.9877 0.829643 12.1547 0.530667C12.1606 0.51975 12.1698 0.511005 12.181 0.505679C12.1922 0.500352 12.2048 0.498718 12.2169 0.501008C13.5747 0.73708 14.8731 1.14919 16.0841 1.70863C16.0948 1.71318 16.1036 1.72083 16.1088 1.73136ZM8.05663 8.51693C8.07159 7.4619 7.30779 6.58889 6.34901 6.58889C5.39806 6.58889 4.64162 7.45425 4.64162 8.51693C4.64162 9.57937 5.41302 10.4447 6.34901 10.4447C7.30019 10.4447 8.05663 9.57937 8.05663 8.51693ZM14.3698 8.51693C14.3848 7.4619 13.621 6.58889 12.6625 6.58889C11.7113 6.58889 10.9548 7.45425 10.9548 8.51693C10.9548 9.57937 11.7262 10.4447 12.6625 10.4447C13.621 10.4447 14.3698 9.57937 14.3698 8.51693Z" fill="black"/>
</svg>
