<svg width="25" height="18" viewBox="0 0 25 18" fill="none" xmlns="http://www.w3.org/2000/svg">
<path d="M3.5 2.25C3.0875 2.25 2.75 2.5875 2.75 3V4.03594L10.8359 10.6734C11.8062 11.4703 13.1984 11.4703 14.1688 10.6734L22.25 4.03594V3C22.25 2.5875 21.9125 2.25 21.5 2.25H3.5ZM2.75 6.94687V15C2.75 15.4125 3.0875 15.75 3.5 15.75H21.5C21.9125 15.75 22.25 15.4125 22.25 15V6.94687L15.5938 12.4125C13.7937 13.8891 11.2016 13.8891 9.40625 12.4125L2.75 6.94687ZM0.5 3C0.5 1.34531 1.84531 0 3.5 0H21.5C23.1547 0 24.5 1.34531 24.5 3V15C24.5 16.6547 23.1547 18 21.5 18H3.5C1.84531 18 0.5 16.6547 0.5 15V3Z" fill="#0A0A0A"/>
</svg>
