<svg width="19" height="18" viewBox="0 0 19 18" fill="none" xmlns="http://www.w3.org/2000/svg">
<g clip-path="url(#clip0_7243_377)">
<path d="M18.3249 9.20737C18.3249 8.59558 18.2753 7.98048 18.1694 7.3786H9.68036V10.8443H14.5417C14.3399 11.9621 13.6918 12.9509 12.7426 13.5792V15.828H15.6429C17.346 14.2605 18.3249 11.9456 18.3249 9.20737Z" fill="#4285F4"/>
<path d="M9.68014 18.0007C12.1075 18.0007 14.1545 17.2037 15.646 15.828L12.7457 13.5792C11.9388 14.1282 10.8971 14.439 9.68344 14.439C7.33547 14.439 5.34466 12.855 4.63035 10.7253H1.63751V13.0435C3.16535 16.0826 6.27723 18.0007 9.68014 18.0007Z" fill="#34A853"/>
<path d="M4.62726 10.7253C4.25026 9.60751 4.25026 8.39715 4.62726 7.27939V4.96118H1.63774C0.361233 7.50426 0.361233 10.5004 1.63774 13.0435L4.62726 10.7253Z" fill="#FBBC04"/>
<path d="M9.68014 3.56224C10.9633 3.5424 12.2034 4.02523 13.1326 4.9115L15.7022 2.34196C14.0751 0.814129 11.9157 -0.0258495 9.68014 0.000606499C6.27723 0.000606499 3.16535 1.91867 1.63751 4.96111L4.62704 7.27931C5.33804 5.1463 7.33217 3.56224 9.68014 3.56224Z" fill="#EA4335"/>
</g>
<defs>
<clipPath id="clip0_7243_377">
<rect width="18" height="18" fill="white" transform="translate(0.5)"/>
</clipPath>
</defs>
</svg>
