<svg width="14" height="14" viewBox="0 0 14 14" fill="none" xmlns="http://www.w3.org/2000/svg">
<path d="M6.3335 3.66667H7.66683V5H6.3335V3.66667ZM6.3335 6.33333H7.66683V10.3333H6.3335V6.33333ZM7.00016 0.333332C3.32016 0.333332 0.333496 3.32 0.333496 7C0.333496 10.68 3.32016 13.6667 7.00016 13.6667C10.6802 13.6667 13.6668 10.68 13.6668 7C13.6668 3.32 10.6802 0.333332 7.00016 0.333332ZM7.00016 12.3333C4.06016 12.3333 1.66683 9.94 1.66683 7C1.66683 4.06 4.06016 1.66667 7.00016 1.66667C9.94016 1.66667 12.3335 4.06 12.3335 7C12.3335 9.94 9.94016 12.3333 7.00016 12.3333Z" fill="currentColor"/>
</svg>
