<svg width="21" height="14" viewBox="0 0 21 14" fill="none" xmlns="http://www.w3.org/2000/svg">
<path d="M18.5 2V12H2.5V2H18.5ZM18.5 0H2.5C1.4 0 0.51 0.9 0.51 2L0.5 12C0.5 13.1 1.4 14 2.5 14H18.5C19.6 14 20.5 13.1 20.5 12V2C20.5 0.9 19.6 0 18.5 0ZM9.5 3H11.5V5H9.5V3ZM9.5 6H11.5V8H9.5V6ZM6.5 3H8.5V5H6.5V3ZM6.5 6H8.5V8H6.5V6ZM3.5 6H5.5V8H3.5V6ZM3.5 3H5.5V5H3.5V3ZM6.5 9H14.5V11H6.5V9ZM12.5 6H14.5V8H12.5V6ZM12.5 3H14.5V5H12.5V3ZM15.5 6H17.5V8H15.5V6ZM15.5 3H17.5V5H15.5V3Z" fill="currentColor"/>
</svg>
