<svg width="16" height="16" viewBox="0 0 16 16" fill="none" xmlns="http://www.w3.org/2000/svg">
<path d="M14.7532 13.2277L11.9407 6.41523C11.8888 6.28943 11.8007 6.18187 11.6875 6.10618C11.5744 6.0305 11.4414 5.9901 11.3053 5.9901C11.1692 5.9901 11.0361 6.0305 10.923 6.10618C10.8099 6.18187 10.7217 6.28943 10.6698 6.41523L7.85729 13.2277C7.82232 13.3113 7.8042 13.4009 7.80397 13.4915C7.80374 13.582 7.82141 13.6718 7.85597 13.7555C7.89052 13.8392 7.94127 13.9153 8.00531 13.9793C8.06935 14.0434 8.14541 14.0941 8.22912 14.1287C8.31284 14.1632 8.40256 14.1809 8.49313 14.1807C8.58369 14.1805 8.67333 14.1624 8.75688 14.1274C8.84042 14.0925 8.91624 14.0413 8.97997 13.977C9.0437 13.9126 9.09408 13.8363 9.12823 13.7524L9.70104 12.3652H12.9095L13.4823 13.7524C13.5342 13.8783 13.6223 13.9859 13.7355 14.0616C13.8487 14.1373 13.9818 14.1777 14.1179 14.1777C14.2309 14.1777 14.3421 14.1498 14.4417 14.0965C14.5413 14.0432 14.6263 13.9662 14.6891 13.8723C14.7519 13.7784 14.7905 13.6704 14.8017 13.558C14.8128 13.4456 14.7961 13.3321 14.7529 13.2277H14.7532ZM10.2689 10.9902L11.3054 8.4793L12.342 10.9902H10.2689ZM8.17542 10.394C8.28223 10.2464 8.32613 10.0626 8.29747 9.88268C8.26882 9.70281 8.16997 9.54166 8.02261 9.43461C8.01636 9.42992 7.55386 9.0868 6.88229 8.3493C8.12136 6.6718 8.82323 4.76336 9.10948 3.86523H10.1179C10.3003 3.86523 10.4751 3.7928 10.6041 3.66387C10.733 3.53494 10.8054 3.36007 10.8054 3.17773C10.8054 2.9954 10.733 2.82053 10.6041 2.6916C10.4751 2.56267 10.3003 2.49023 10.1179 2.49023H6.49292V1.86523C6.49292 1.6829 6.42049 1.50803 6.29156 1.3791C6.16262 1.25017 5.98776 1.17773 5.80542 1.17773C5.62308 1.17773 5.44822 1.25017 5.31928 1.3791C5.19035 1.50803 5.11792 1.6829 5.11792 1.86523V2.49023H1.49292C1.31058 2.49023 1.13572 2.56267 1.00678 2.6916C0.877853 2.82053 0.80542 2.9954 0.80542 3.17773C0.80542 3.36007 0.877853 3.53494 1.00678 3.66387C1.13572 3.7928 1.31058 3.86523 1.49292 3.86523H7.65698C7.35948 4.70742 6.81167 6.03711 5.97604 7.25148C4.99448 5.94898 4.62979 5.10617 4.62698 5.0993C4.55512 4.93323 4.42069 4.80219 4.25285 4.73459C4.085 4.667 3.89727 4.6683 3.73038 4.73822C3.56348 4.80813 3.43088 4.94102 3.36133 5.10807C3.29178 5.27512 3.29089 5.46285 3.35886 5.63055C3.37698 5.67367 3.81354 6.70023 5.01073 8.25336C5.03948 8.29055 5.06792 8.3268 5.09636 8.36305C3.87011 9.74898 2.66698 10.6087 2.16354 10.8862C2.00346 10.9735 1.88462 11.1208 1.83317 11.2958C1.78171 11.4707 1.80186 11.6589 1.88917 11.819C1.97648 11.9791 2.12381 12.0979 2.29875 12.1494C2.47369 12.2008 2.6619 12.1807 2.82198 12.0934C2.88948 12.0565 4.34073 11.253 5.99792 9.41867C6.70167 10.1712 7.18542 10.5262 7.21448 10.5468C7.28761 10.5999 7.37048 10.6381 7.45838 10.6591C7.54627 10.6802 7.63745 10.6837 7.7267 10.6695C7.81595 10.6553 7.90152 10.6236 7.97852 10.5763C8.05552 10.5289 8.12243 10.4669 8.17542 10.3937V10.394Z" fill="currentColor"/>
</svg>
