<svg width="24" height="24" viewBox="0 0 24 24" fill="none" xmlns="http://www.w3.org/2000/svg">
<path d="M21.3226 0.279014C20.8355 -0.131457 20.1079 -0.0693865 19.6975 0.417664C19.287 0.904714 19.3491 1.6323 19.8361 2.04277C21.1051 3.11219 21.6934 4.46657 21.6934 5.7741C21.6934 7.08163 21.1051 8.43601 19.8361 9.50537C19.3491 9.91595 19.287 10.6434 19.6975 11.1305C20.1079 11.6175 20.8355 11.6797 21.3226 11.2692C23.0768 9.79081 24 7.80587 24 5.7741C24 3.74233 23.0768 1.75741 21.3226 0.279014Z" fill="currentColor"/>
<path d="M18.9755 2.25606C18.4885 1.84559 17.761 1.90766 17.3504 2.39471C16.94 2.88175 17.0021 3.60935 17.4892 4.01982C18.1102 4.54327 18.3747 5.18209 18.3747 5.77406C18.3747 6.36602 18.1102 7.00484 17.4892 7.5283C17.0021 7.93877 16.94 8.66636 17.3504 9.1534C17.761 9.6405 18.4885 9.70255 18.9755 9.29209C20.0819 8.35962 20.6813 7.09026 20.6813 5.77406C20.6813 4.45785 20.0819 3.1885 18.9755 2.25606Z" fill="currentColor"/>
<path d="M4.39268 5.77407C4.39268 2.58932 6.97443 0.00756836 10.1592 0.00756836C13.3439 0.00756836 15.9257 2.58932 15.9257 5.77407C15.9257 8.95882 13.3439 11.5406 10.1592 11.5406C6.97443 11.5406 4.39268 8.95882 4.39268 5.77407Z" fill="currentColor"/>
<path d="M0.933487 21.9203C0.933487 16.8246 5.06429 12.6938 10.1599 12.6938C15.2555 12.6938 19.3863 16.8246 19.3863 21.9203C19.3863 22.5572 18.87 23.0736 18.233 23.0736H2.08679C1.44984 23.0736 0.933487 22.5572 0.933487 21.9203Z" fill="currentColor"/>
</svg>
