<svg width="23" height="23" viewBox="0 0 23 23" fill="none" xmlns="http://www.w3.org/2000/svg">
<path d="M7.27002 12.9531C7.27014 15.1563 7.27007 15.1563 9.47322 15.1563H12.7236C14.9268 15.1563 14.9268 15.1563 14.9268 12.953C14.9268 11.4413 14.0459 10.1315 12.7705 9.50964C13.1012 9.12416 13.3016 8.62394 13.3016 8.07747C13.3016 6.86261 12.3132 5.87427 11.0984 5.87427C9.88352 5.87427 8.89518 6.86261 8.89518 8.07747C8.89518 8.62394 9.09561 9.12416 9.42623 9.50964C8.1509 10.1315 7.27002 11.4413 7.27002 12.9531Z" fill="currentColor"/>
<path d="M3.92108 4.50932C5.48519 2.78749 7.62622 1.77784 9.94971 1.66629C12.2733 1.55463 14.5012 2.35476 16.2229 3.91886L16.5817 4.24479L15.3197 4.30538C15.0008 4.32068 14.7547 4.59157 14.77 4.91044C14.7849 5.21987 15.0404 5.46077 15.3469 5.46077C15.3562 5.46077 15.3657 5.46054 15.3751 5.46008L18.031 5.33261C18.3499 5.31731 18.596 5.04642 18.5806 4.72755L18.4532 2.07158C18.4379 1.75271 18.1664 1.50672 17.8481 1.52194C17.5293 1.53725 17.2832 1.80813 17.2985 2.127L17.3591 3.38912L17.0003 3.06315C15.0499 1.29145 12.5261 0.385481 9.89429 0.511596C7.26236 0.637943 4.83711 1.78161 3.06541 3.732C0.813682 6.21072 -0.0238742 9.62712 0.82486 12.8708C0.892851 13.1306 1.12716 13.3027 1.38367 13.3027C1.43212 13.3027 1.48134 13.2966 1.53036 13.2837C1.83922 13.2029 2.02403 12.887 1.94325 12.5782C1.1938 9.71407 1.93319 6.69764 3.92108 4.50932Z" fill="#614D00"/>
<path d="M4.29118 4.84551C5.76611 3.22184 7.78264 2.2709 9.97369 2.16571C11.9109 2.07262 13.7756 2.65092 15.3039 3.80556L15.2957 3.80595C14.8026 3.82963 14.4027 4.18111 14.2968 4.63965C14.2751 4.734 14.2657 4.83289 14.2706 4.93439C14.2983 5.51162 14.7748 5.96077 15.3469 5.96077C15.3643 5.96077 15.3823 5.96031 15.3996 5.95947L18.055 5.83204C18.6496 5.8035 19.1087 5.29831 19.08 4.70352L18.9526 2.04761C18.9241 1.45246 18.4178 0.994123 17.8242 1.02252C17.2295 1.05105 16.7705 1.55628 16.7991 2.15103L16.8033 2.23999C14.8377 0.678647 12.4005 -0.109074 9.87031 0.0121696C7.10594 0.144874 4.55619 1.34725 2.69531 3.3958C0.329742 5.99983 -0.550309 9.59042 0.34115 12.9974C0.468122 13.4826 0.90538 13.8027 1.38367 13.8027C1.4744 13.8027 1.56618 13.7912 1.65695 13.7674C2.23297 13.6167 2.57761 13.0275 2.42696 12.4516C1.72024 9.75077 2.41714 6.90849 4.29118 4.84551Z" fill="currentColor"/>
<path d="M21.3716 9.32104C21.2908 9.01223 20.9749 8.82725 20.6661 8.90816C20.3573 8.98898 20.1725 9.30485 20.2533 9.6137C21.0027 12.4778 20.2634 15.4942 18.2755 17.6826C16.7114 19.4044 14.5703 20.414 12.2468 20.5256C12.1039 20.5325 11.9616 20.5359 11.8195 20.5359C9.6514 20.5358 7.58951 19.7409 5.9736 18.273L5.61479 17.9471L6.87687 17.8865C7.19574 17.8712 7.44185 17.6003 7.4265 17.2814C7.41124 16.9626 7.13989 16.7163 6.82148 16.7318L4.16555 16.8593C3.84668 16.8746 3.60057 17.1455 3.61591 17.4643L3.74338 20.1203C3.75822 20.4297 4.01372 20.6706 4.32026 20.6706C4.32959 20.6706 4.339 20.6704 4.3484 20.6699C4.66727 20.6546 4.91337 20.3838 4.89803 20.0649L4.83744 18.8028L5.19625 19.1287C7.02677 20.7916 9.3621 21.692 11.8181 21.692C11.9789 21.692 12.1404 21.6881 12.3022 21.6803C14.9341 21.554 17.3593 20.4103 19.1311 18.4599C21.3828 15.9812 22.2204 12.5648 21.3716 9.32104Z" fill="#614D00"/>
<path d="M19.5012 18.796C21.8668 16.1919 22.7468 12.6014 21.8554 9.19435C21.7047 8.61865 21.1157 8.27345 20.5396 8.42433C19.9635 8.57507 19.6189 9.16418 19.7695 9.74011C19.8205 9.93475 19.8641 10.1301 19.9005 10.3259C20.3215 12.5876 19.7808 14.9013 18.4091 16.7357C18.252 16.9458 18.0841 17.1495 17.9054 17.3463C17.6716 17.6036 17.4243 17.844 17.1648 18.0668C15.7869 19.2501 14.0667 19.9375 12.2228 20.0261C12.0878 20.0325 11.9535 20.0358 11.8195 20.0358C10.0282 20.0357 8.31482 19.4606 6.89269 18.3862L6.90086 18.3858C7.49546 18.3573 7.95448 17.852 7.92594 17.2573C7.89741 16.6628 7.39153 16.2035 6.79713 16.2323L4.14159 16.3597C3.54695 16.3883 3.08792 16.8935 3.1165 17.4882L3.24396 20.1442C3.27165 20.7214 3.74819 21.1705 4.32027 21.1705C4.33764 21.1705 4.35504 21.1701 4.37237 21.1692C4.96702 21.1407 5.42605 20.6355 5.39746 20.0407L5.3932 19.9518C7.22657 21.4082 9.47046 22.1919 11.8181 22.1918C11.987 22.1918 12.1565 22.1878 12.3262 22.1796C15.0905 22.0469 17.6403 20.8446 19.5012 18.796Z" fill="currentColor"/>
</svg>
