<svg width="17" height="17" viewBox="0 0 17 17" fill="none" xmlns="http://www.w3.org/2000/svg">
<path d="M16.5963 15.0577L12.9209 11.3823C13.8058 10.2043 14.2834 8.77048 14.2818 7.29717C14.2818 3.53389 11.2201 0.472168 7.45684 0.472168C3.69356 0.472168 0.631836 3.53389 0.631836 7.29717C0.631836 11.0605 3.69356 14.1222 7.45684 14.1222C8.93015 14.1238 10.364 13.6461 11.542 12.7612L15.2174 16.4366C15.4034 16.6029 15.6461 16.6917 15.8955 16.6847C16.145 16.6777 16.3823 16.5755 16.5588 16.3991C16.7352 16.2226 16.8374 15.9853 16.8444 15.7359C16.8514 15.4864 16.7626 15.2438 16.5963 15.0577ZM2.58184 7.29717C2.58184 6.33298 2.86775 5.39045 3.40342 4.58876C3.93909 3.78707 4.70046 3.16223 5.59125 2.79326C6.48204 2.42428 7.46224 2.32774 8.4079 2.51584C9.35356 2.70394 10.2222 3.16824 10.904 3.85002C11.5858 4.5318 12.0501 5.40045 12.2382 6.3461C12.4263 7.29176 12.3297 8.27196 11.9607 9.16275C11.5918 10.0535 10.9669 10.8149 10.1652 11.3506C9.36355 11.8863 8.42102 12.1722 7.45684 12.1722C6.16438 12.1706 4.92531 11.6565 4.0114 10.7426C3.0975 9.8287 2.58339 8.58962 2.58184 7.29717Z" fill="currentColor"/>
</svg>
