<svg width="32" height="32" viewBox="0 0 32 32" fill="none" xmlns="http://www.w3.org/2000/svg">
<g id="volume_off [32px]">
<path id="Icon" d="M26 27L4 5" stroke="#FAFAFA" stroke-width="2" stroke-miterlimit="10" stroke-linecap="square"/>
<path id="Icon_2" d="M22 16.0001C22 14.4651 21.6369 13.0076 20.8907 11.5457L20.4375 10.6544L18.655 11.5626L19.1094 12.4532C19.7088 13.6288 20 14.7888 20 16.0001C19.9997 16.2452 19.9865 16.4901 19.9607 16.7338L21.6682 18.4413C21.8866 17.6459 21.9982 16.8249 22 16.0001ZM26 16.0001C26 12.8007 25.1825 10.7569 23.8638 8.49632L23.36 7.63257L21.6325 8.64007L22.1363 9.50382C23.3169 11.5276 24 13.2394 24 16.0001C24 17.6207 23.7569 18.8882 23.3125 20.0832L24.8438 21.6151C25.5744 19.9801 26 18.2763 26 16.0001Z" fill="#FAFAFA"/>
<path id="Icon_3" d="M30 16C30 11.3587 28.7381 8.43062 26.8431 5.46187L26.305 4.61875L24.6175 5.695L25.1556 6.53813C26.8637 9.21125 28 11.8438 28 16C28 19.0475 27.4125 21.25 26.4487 23.2219L27.93 24.7031C29.385 21.9619 30 19.3125 30 16ZM16 4.5L11.4 8.17375L16 12.7731V4.5ZM2 11.0063V20.9937H7.85313L16 27.5V21.2269L5.77938 11.0063H2Z" fill="#FAFAFA"/>
</g>
</svg>
