<svg width="95" height="101" viewBox="0 0 95 101" fill="none" xmlns="http://www.w3.org/2000/svg">
<path d="M94.7052 100.113L93.0102 95.5951L88.7522 84.2498L83.7446 70.9034L70.6777 36.0856L68.3317 29.832C67.9523 31.2966 67.4042 32.8919 66.556 34.187C64.4269 37.4354 60.9337 41.5628 56.653 43.1186C53.9033 44.1203 50.829 44.6802 47.5816 44.6802C44.3342 44.6802 41.2599 44.1203 38.5102 43.1186C34.2295 41.5628 30.7363 37.4354 28.6073 34.187C27.759 32.8919 27.0446 31.2966 26.6652 29.832L24.3192 36.0856L11.2524 70.9034L6.24476 84.2498L1.98676 95.5951L0.291755 100.113C0.161254 100.396 0.434397 100.694 0.825903 100.694H21.3936C21.6394 100.694 21.8579 100.571 21.9338 100.391L23.9202 95.65L27.7047 86.6191C27.7806 86.4391 27.9976 86.3164 28.2434 86.3164H66.7566C67.0024 86.3164 67.2194 86.4391 67.2953 86.6191L71.0798 95.65L73.0662 100.391C73.1421 100.571 73.3606 100.694 73.6064 100.694H94.1741C94.5656 100.694 94.8387 100.396 94.7082 100.113H94.7052ZM35.465 69.9519C35.0811 69.9519 34.8079 69.6632 34.9263 69.3815L36.5682 65.4645L40.9779 54.9421C41.0538 54.7621 41.2708 54.6394 41.5166 54.6394H53.4773C53.7231 54.6394 53.9401 54.7621 54.016 54.9421L58.4257 65.4645L60.0676 69.3815C60.186 69.6632 59.9128 69.9519 59.5289 69.9519H35.465Z" fill="#0A0A0A"/>
<path d="M65.2155 18.0224C65.2155 27.8142 57.2922 35.7371 47.5 35.7371C37.7078 35.7371 29.7845 27.8142 29.7845 18.0224C29.7845 16.6126 29.9484 15.2412 30.2599 13.9274C30.2599 13.9274 30.2599 13.9259 30.2599 13.9229C31.0645 10.5173 32.8523 7.48953 35.3088 5.163C37.0892 3.47272 39.2195 2.1515 41.5845 1.31743C43.4343 0.661984 45.4243 0.306213 47.4985 0.306213C49.5727 0.306213 51.5627 0.661984 53.4125 1.31743C56.3651 2.35817 58.953 4.16064 60.9505 6.48865C62.3751 8.14793 63.4956 10.0715 64.2278 12.178C64.8656 14.0071 65.2125 15.9734 65.2125 18.0195L65.2155 18.0224Z" fill="#0A0A0A"/>
</svg>
