<svg width="17" height="16" viewBox="0 0 17 16" fill="none" xmlns="http://www.w3.org/2000/svg">
<path d="M7.68889 10.6559C8.83914 9.88839 9.69589 8.70589 9.69589 7.24888C9.69589 6.20696 9.27447 5.20771 8.52432 4.47096C7.77417 3.73421 6.75676 3.32031 5.69589 3.32031C4.63503 3.32031 3.61761 3.73421 2.86747 4.47096C2.11732 5.20771 1.69589 6.20696 1.69589 7.24888V12.3209C1.69589 13.4077 2.58939 14.3203 3.69589 14.3203C4.80239 14.3203 5.36664 13.6834 5.62814 13.3382C5.99739 12.8518 6.67089 11.3356 7.68889 10.6559Z" stroke="currentColor" stroke-linecap="round" stroke-linejoin="round"/>
<path d="M3.69589 10.3203V7.4357C3.69589 6.27224 4.59589 5.32031 5.69589 5.32031C6.79589 5.32031 7.69589 6.27224 7.69589 7.4357" stroke="currentColor" stroke-linecap="round" stroke-linejoin="round"/>
<path d="M3.69589 8.72644C4.14289 8.2451 5.12306 8.32533 5.12306 8.32533C5.58794 8.32533 5.85918 9.11205 5.58794 9.67842C5.58794 9.67842 4.92889 10.8122 4.83949 11.3203" stroke="currentColor" stroke-linecap="round" stroke-linejoin="round"/>
<path d="M11.8471 8.51321C11.723 8.5131 11.6016 8.47716 11.4975 8.4097C11.3934 8.34224 11.311 8.24614 11.2602 8.13295C11.2094 8.01977 11.1924 7.89431 11.2112 7.77169C11.23 7.64906 11.2838 7.53448 11.3662 7.44172C11.7183 7.04533 11.9128 6.53356 11.9128 6.00336C11.9128 5.47317 11.7183 4.96139 11.3662 4.56501C11.3083 4.50213 11.2635 4.42833 11.2343 4.34794C11.2052 4.26755 11.1924 4.18217 11.1967 4.09677C11.2009 4.01138 11.2221 3.92769 11.2591 3.85058C11.296 3.77347 11.3479 3.70449 11.4118 3.64766C11.4757 3.59084 11.5503 3.5473 11.6311 3.5196C11.712 3.4919 11.7976 3.48058 11.8829 3.48631C11.9682 3.49204 12.0516 3.5147 12.128 3.55298C12.2045 3.59125 12.2725 3.64436 12.3282 3.70922C12.8899 4.34135 13.2002 5.15759 13.2002 6.00322C13.2002 6.84885 12.8899 7.66509 12.3282 8.29721C12.2678 8.36514 12.1937 8.41951 12.1108 8.45673C12.0279 8.49396 11.938 8.51321 11.8471 8.51321Z" fill="currentColor"/>
<path d="M13.3372 10.0047C13.2119 10.0045 13.0893 9.9677 12.9845 9.89886C12.8798 9.83003 12.7974 9.73212 12.7475 9.61714C12.6976 9.50217 12.6824 9.37513 12.7036 9.2516C12.7249 9.12808 12.7817 9.01344 12.8672 8.92176C13.6069 8.13028 14.0183 7.0874 14.0183 6.00407C14.0183 4.92075 13.6069 3.87786 12.8672 3.08639C12.8088 3.02474 12.7633 2.95218 12.7331 2.87287C12.7029 2.79356 12.6887 2.70907 12.6913 2.62425C12.6939 2.53943 12.7132 2.45596 12.7482 2.37864C12.7831 2.30132 12.833 2.23167 12.895 2.1737C12.957 2.11572 13.0298 2.07057 13.1093 2.04083C13.1887 2.01109 13.2733 1.99736 13.3581 2.00042C13.4429 2.00348 13.5263 2.02327 13.6034 2.05865C13.6805 2.09403 13.7499 2.14432 13.8075 2.2066C14.7703 3.23664 15.3059 4.59396 15.3059 6.00392C15.3059 7.41389 14.7703 8.77121 13.8075 9.80125C13.7473 9.86565 13.6745 9.91695 13.5935 9.95195C13.5126 9.98695 13.4254 10.0049 13.3372 10.0047Z" fill="currentColor"/>
</svg>
