<svg width="17" height="16" viewBox="0 0 17 16" fill="none" xmlns="http://www.w3.org/2000/svg">
<path d="M4.09694 5.68325C4.20159 7.15189 5.27909 8.28325 6.45409 8.28325C7.62909 8.28325 8.70837 7.15225 8.81123 5.68325C8.91837 4.15539 7.86944 3.08325 6.45409 3.08325C5.03873 3.08325 3.9898 4.1832 4.09694 5.68325Z" stroke="currentColor" stroke-linecap="round" stroke-linejoin="round"/>
<path d="M6.40067 10.125C8.70739 10.125 10.9256 11.2835 11.4813 13.5396C11.5549 13.8381 11.3698 14.1333 11.0665 14.1333H1.73449C1.43115 14.1333 1.2471 13.8381 1.31966 13.5396C1.87537 11.2473 4.0936 10.125 6.40067 10.125Z" stroke="currentColor" stroke-miterlimit="10"/>
<path d="M11.4699 8.51321C11.3459 8.5131 11.2245 8.47716 11.1204 8.4097C11.0162 8.34224 10.9338 8.24614 10.883 8.13295C10.8322 8.01977 10.8152 7.89431 10.834 7.77169C10.8528 7.64906 10.9067 7.53448 10.9891 7.44172C11.3412 7.04533 11.5357 6.53356 11.5357 6.00336C11.5357 5.47317 11.3412 4.96139 10.9891 4.56501C10.9311 4.50213 10.8863 4.42833 10.8572 4.34794C10.8281 4.26755 10.8153 4.18217 10.8196 4.09677C10.8238 4.01138 10.845 3.92769 10.8819 3.85058C10.9189 3.77347 10.9708 3.70449 11.0347 3.64766C11.0986 3.59084 11.1731 3.5473 11.254 3.5196C11.3349 3.4919 11.4205 3.48058 11.5058 3.48631C11.5911 3.49204 11.6744 3.5147 11.7509 3.55298C11.8273 3.59125 11.8954 3.64436 11.9511 3.70922C12.5128 4.34135 12.8231 5.15759 12.8231 6.00322C12.8231 6.84885 12.5128 7.66509 11.9511 8.29721C11.8907 8.36514 11.8166 8.41951 11.7336 8.45673C11.6507 8.49396 11.5608 8.51321 11.4699 8.51321Z" fill="currentColor"/>
<path d="M12.9601 10.0047C12.8347 10.0045 12.7122 9.9677 12.6074 9.89886C12.5027 9.83003 12.4203 9.73212 12.3704 9.61714C12.3205 9.50217 12.3052 9.37513 12.3265 9.2516C12.3477 9.12808 12.4046 9.01344 12.49 8.92176C13.2297 8.13028 13.6412 7.0874 13.6412 6.00407C13.6412 4.92075 13.2297 3.87786 12.49 3.08639C12.4317 3.02474 12.3861 2.95218 12.356 2.87287C12.3258 2.79356 12.3116 2.70907 12.3142 2.62425C12.3168 2.53943 12.3361 2.45596 12.371 2.37864C12.406 2.30132 12.4559 2.23167 12.5179 2.1737C12.5798 2.11572 12.6526 2.07057 12.7321 2.04083C12.8116 2.01109 12.8962 1.99736 12.981 2.00042C13.0658 2.00348 13.1491 2.02327 13.2263 2.05865C13.3034 2.09403 13.3728 2.14432 13.4304 2.2066C14.3932 3.23664 14.9288 4.59396 14.9288 6.00392C14.9288 7.41389 14.3932 8.77121 13.4304 9.80125C13.3702 9.86565 13.2973 9.91695 13.2164 9.95195C13.1355 9.98695 13.0482 10.0049 12.9601 10.0047Z" fill="currentColor"/>
</svg>
